<svg width="94" height="94" viewBox="0 0 94 94" fill="none" xmlns="http://www.w3.org/2000/svg">
<path d="M47.0003 0.195557C21.043 0.195557 0 21.2386 0 47.1958C0 70.4765 16.9445 89.7567 39.1616 93.4902V57.0014H27.8237V43.8705H39.1616V34.1883C39.1616 22.9542 46.023 16.8323 56.0461 16.8323C60.8465 16.8323 64.9719 17.19 66.1695 17.3475V29.0902L59.2178 29.0935C53.7681 29.0935 52.7174 31.6827 52.7174 35.4835V43.8638H65.721L64.025 56.9946H52.7174V93.8042C75.9717 90.9739 94 71.2025 94 47.1824C94 21.2386 72.957 0.195557 47.0003 0.195557Z" fill="#010002"/>
</svg>
