<svg width="94" height="94" viewBox="0 0 94 94" fill="none" xmlns="http://www.w3.org/2000/svg">
<path d="M68.0584 0H25.9399C11.6366 0 0 11.6372 0 25.9404V68.059C0 82.3628 11.6366 93.9994 25.9399 93.9994H68.0584C82.3628 93.9994 93.9994 82.3622 93.9994 68.059V25.9404C94 11.6372 82.3628 0 68.0584 0ZM85.6599 68.059C85.6599 77.7641 77.7641 85.6593 68.059 85.6593H25.9399C16.2354 85.6599 8.34009 77.7641 8.34009 68.059V25.9404C8.34009 16.2359 16.2354 8.34009 25.9399 8.34009H68.0584C77.7635 8.34009 85.6593 16.2359 85.6593 25.9404V68.059H85.6599Z" fill="black"/>
<path d="M46.9997 22.7795C33.6439 22.7795 22.7784 33.645 22.7784 47.0008C22.7784 60.3561 33.6439 71.221 46.9997 71.221C60.3555 71.221 71.221 60.3561 71.221 47.0008C71.221 33.645 60.3555 22.7795 46.9997 22.7795ZM46.9997 62.8803C38.2432 62.8803 31.1185 55.7568 31.1185 47.0003C31.1185 38.2432 38.2426 31.1191 46.9997 31.1191C55.7568 31.1191 62.8809 38.2432 62.8809 47.0003C62.8809 55.7568 55.7562 62.8803 46.9997 62.8803Z" fill="black"/>
<path d="M72.2368 15.7078C70.6299 15.7078 69.0514 16.3583 67.9166 17.4981C66.7763 18.6324 66.1207 20.2114 66.1207 21.8238C66.1207 23.4312 66.7768 25.0097 67.9166 26.1496C69.0509 27.2838 70.6299 27.9399 72.2368 27.9399C73.8492 27.9399 75.4227 27.2838 76.5625 26.1496C77.7023 25.0097 78.3529 23.4307 78.3529 21.8238C78.3529 20.2114 77.7023 18.6324 76.5625 17.4981C75.4283 16.3583 73.8492 15.7078 72.2368 15.7078Z" fill="black"/>
</svg>
