<svg width="94" height="94" viewBox="0 0 94 94" fill="none" xmlns="http://www.w3.org/2000/svg">
<g clip-path="url(#clip0)">
<path d="M84.3415 27.8592C88.1642 25.145 91.3798 21.7571 94 17.8561V17.8522C90.5024 19.3836 86.7816 20.4019 82.8963 20.8954C86.8913 18.5102 89.9423 14.7619 91.3758 10.246C87.6511 12.4667 83.5386 14.0334 79.1558 14.9107C75.6191 11.1429 70.5783 8.8125 65.0793 8.8125C54.4103 8.8125 45.8211 17.4722 45.8211 28.0864C45.8211 29.6139 45.9503 31.0827 46.2676 32.4809C30.2484 31.6976 16.0701 24.0209 6.54475 12.3218C4.88408 15.2084 3.90492 18.5102 3.90492 22.0626C3.90492 28.7366 7.33983 34.6508 12.4668 38.0778C9.36867 38.0191 6.33325 37.1183 3.76 35.7043V35.9158C3.76 45.2806 10.4379 53.0591 19.1995 54.8529C17.6289 55.2838 15.9213 55.4874 14.147 55.4874C12.9132 55.4874 11.6678 55.4169 10.5006 55.1584C12.9955 62.7881 20.0847 68.4007 28.5055 68.5848C21.949 73.7117 13.6222 76.8019 4.60992 76.8019C3.0315 76.8019 1.51575 76.7314 0 76.5395C8.53833 82.0424 18.6512 85.1875 29.563 85.1875C63.5714 85.1875 85.7358 56.8152 84.3415 27.8592Z" fill="black"/>
</g>
<defs>
<clipPath id="clip0">
<rect width="94" height="94" fill="white"/>
</clipPath>
</defs>
</svg>
